<svg xmlns="http://www.w3.org/2000/svg" xmlns:xlink="http://www.w3.org/1999/xlink" viewBox="0 0 24 24">
  <g id="icon/telegram" stroke="none" stroke-width="1" fill="none" fill-rule="evenodd">
    <path fill="currentColor" d="M22.66 3.02c-.268-.335-.671-.52-1.133-.52-.251 0-.518.054-.791.16L2.113 9.918C1.125 10.302.992 10.88 1 11.19c.009.31.174.88 1.182 1.207a.73.73 0 0 0 .018.005l3.863 1.129 2.089 6.098c.285.83.924 1.347 1.669 1.347.47 0 .93-.2 1.335-.58l2.39-2.246L17.01 21h.001l.033.027.01.008c.384.305.805.466 1.216.466.802 0 1.441-.606 1.627-1.545l3.052-15.38c.122-.617.02-1.169-.29-1.555ZM7.355 13.316l7.453-3.886-4.64 5.033a.661.661 0 0 0-.157.293l-.895 3.7-1.76-5.14Zm2.928 6.112c-.031.029-.062.055-.093.078l.83-3.432 1.51 1.241-2.247 2.113ZM21.686 4.314l-3.051 15.38c-.03.147-.123.49-.364.49-.12 0-.27-.066-.423-.187l-3.926-3.227-.002-.002-2.337-1.92 6.71-7.28a.668.668 0 0 0 .047-.845.636.636 0 0 0-.809-.191L6.494 12.288l-3.915-1.144L21.195 3.89a.929.929 0 0 1 .332-.074c.04 0 .11.005.135.037.035.043.078.188.024.461Z" id="path-1"/>
  </g>
</svg>
